<?xml version="1.0" encoding="utf-8"?>
<!-- Generator: Adobe Illustrator 27.5.0, SVG Export Plug-In . SVG Version: 6.00 Build 0)  -->
<svg version="1.1" xmlns="http://www.w3.org/2000/svg" xmlns:xlink="http://www.w3.org/1999/xlink" x="0px" y="0px"
	 viewBox="0 0 500 500" style="enable-background:new 0 0 500 500;" xml:space="preserve">
<g id="background">
	<rect style="fill:#FFE3C9;" width="500" height="500"/>
</g>
<g id="objects">
	<g>
		<defs>
			<rect id="SVGID_1_" width="500" height="500"/>
		</defs>
		<clipPath id="SVGID_00000157272825768641666590000000122105492878379154_">
			<use xlink:href="#SVGID_1_"  style="overflow:visible;"/>
		</clipPath>
		<g style="clip-path:url(#SVGID_00000157272825768641666590000000122105492878379154_);">
			<g>
				<path style="fill:#F283B5;" d="M52.187,448.908c0,22.043-17.868,39.911-39.91,39.911l0,0c-22.042,0-39.911-17.868-39.911-39.911
					v-65.493c0-22.043,17.869-39.911,39.911-39.911l0,0c22.042,0,39.91,17.868,39.91,39.911V448.908z"/>
				<path style="fill:#D66699;" d="M12.277,469.819c-11.53,0-20.911-9.381-20.911-20.911v-65.493c0-11.53,9.38-20.911,20.911-20.911
					c11.53,0,20.91,9.381,20.91,20.911v65.493C33.187,460.439,23.807,469.819,12.277,469.819z"/>
			</g>
			<g>
				<path style="fill:#BFD176;" d="M101.088,447.708c0,16.354-13.257,29.611-29.611,29.611l0,0
					c-16.354,0-29.611-13.257-29.611-29.611v-48.593c0-16.354,13.257-29.611,29.611-29.611l0,0
					c16.354,0,29.611,13.257,29.611,29.611V447.708z"/>
				<path style="fill:#D3E378;" d="M71.478,458.319c-5.851,0-10.611-4.76-10.611-10.611v-48.593c0-5.852,4.76-10.611,10.611-10.611
					c5.851,0,10.611,4.76,10.611,10.611v48.593C82.088,453.56,77.329,458.319,71.478,458.319z"/>
			</g>
			<g>
				<path style="fill:#F283B5;" d="M413.399,448.908c0,22.043,17.869,39.911,39.91,39.911l0,0c22.043,0,39.911-17.868,39.911-39.911
					v-65.493c0-22.043-17.868-39.911-39.911-39.911l0,0c-22.041,0-39.91,17.868-39.91,39.911V448.908z"/>
				<path style="fill:#D66699;" d="M453.31,469.819c11.531,0,20.911-9.381,20.911-20.911v-65.493c0-11.53-9.38-20.911-20.911-20.911
					c-11.529,0-20.91,9.381-20.91,20.911v65.493C432.399,460.439,441.78,469.819,453.31,469.819z"/>
			</g>
			<g>
				<path style="fill:#B5BEFF;" d="M454.999,447.708c0,16.354,13.256,29.611,29.61,29.611l0,0c16.355,0,29.611-13.257,29.611-29.611
					v-48.593c0-16.354-13.257-29.611-29.611-29.611l0,0c-16.354,0-29.61,13.257-29.61,29.611V447.708z"/>
				<path style="fill:#9AA3E6;" d="M484.609,458.319c5.851,0,10.611-4.76,10.611-10.611v-48.593c0-5.852-4.761-10.611-10.611-10.611
					c-5.851,0-10.61,4.76-10.61,10.611v48.593C473.999,453.56,478.759,458.319,484.609,458.319z"/>
			</g>
		</g>
	</g>
	<path style="fill:#D3E378;" d="M500,447.334c-54.859-26.911-145.71-44.508-248.521-44.508
		c-104.672,0-196.961,18.236-251.479,45.975V500h500V447.334z"/>
	<g>
		<g>
			<path style="fill:#99A4FF;" d="M36.291,192.141c0,31.592,8.523,61.228,23.38,86.74h49.312V105.398H59.671
				C44.814,130.913,36.291,160.549,36.291,192.141z"/>
			<path style="fill:#B5BEFF;" d="M204.686,38.026l-31.617-14.99c-48.463,10.346-89.472,41.051-113.601,82.706
				c-0.563,0.99-1.126,1.978-1.682,2.982L250,192.141L204.686,38.026z"/>
			<path style="fill:#C4D190;" d="M57.786,275.556c26.123,47.23,73.692,81.02,129.483,88.114l14.322,1.385L250,192.141
				L57.786,275.556z"/>
			<path style="fill:#99A4FF;" d="M463.709,192.141c0,31.592-8.524,61.228-23.38,86.74h-49.313V105.398h49.313
				C455.185,130.913,463.709,160.549,463.709,192.141z"/>
			<path style="fill:#C4D190;" d="M442.215,108.725c-0.009-0.015-0.017-0.03-0.026-0.045c-0.546-0.986-1.099-1.956-1.651-2.929
				c-24.127-41.658-65.135-72.366-113.6-82.714c-0.001,0-0.003,0-0.005,0L250,192.141L442.215,108.725z"/>
			<path style="fill:#B5BEFF;" d="M442.215,275.556c-26.123,47.23-73.693,81.02-129.483,88.114l-14.322,1.385L250,192.141
				L442.215,275.556z"/>
			<path style="fill:#F2B1CE;" d="M173.068,23.036c11.66-2.489,23.746-3.809,36.137-3.809h81.59c12.391,0,24.479,1.32,36.138,3.81
				L250,192.141L173.068,23.036z"/>
			<path style="fill:#F2B1CE;" d="M173.068,361.245c11.66,2.489,23.746,3.81,36.137,3.81h81.59c12.391,0,24.479-1.32,36.138-3.811
				L250,192.141L173.068,361.245z"/>
		</g>
		<path style="fill:#FFFFFF;" d="M448.875,192.141c0,87.305-70.775,158.08-158.08,158.08h-81.59
			c-87.305,0-158.08-70.775-158.08-158.08l0,0c0-87.305,70.775-158.08,158.08-158.08h81.59
			C378.1,34.061,448.875,104.836,448.875,192.141L448.875,192.141z"/>
	</g>
	<g>
		<path style="fill:#310B42;" d="M376.286,305.908c0.415,5.666-2.209,11.668-2.209,11.668c11.815,3.04,21.073,45.179,24.804,80.865
			c-8.738,2.627-23.631,3.316-23.631,3.316l-18.034-81.188l11.609-13.336L376.286,305.908z"/>
		<path style="fill:#E8C9AC;" d="M319.628,325.269c4.422,11.608,13.404,25.565,22.939,26.118
			c10.642-0.139,21.559-25.014,21.559-25.014l-8.016-8.982c0,0-30.125,1.244-30.679,1.659
			C324.879,319.464,319.628,325.269,319.628,325.269z"/>
		<path style="fill:#F283B5;" d="M370.621,368.523c-13.632,0.4-23.332,0.365-27.637,0.316l-0.002-0.04c0,0-0.427,0.011-1.243,0.022
			c-0.818-0.012-1.245-0.022-1.245-0.022l-0.002,0.04c-4.304,0.049-14.005,0.084-27.636-0.316
			c-16.584,11.607-20.453,64.122-19.348,89.826c3.822,4.246,26.395,5.555,42.295,5.934h11.869
			c15.901-0.379,38.473-1.688,42.295-5.934C391.073,432.646,387.204,380.131,370.621,368.523z"/>
		<path style="fill:#243A69;" d="M347.673,445.23h-11.869c-15.863-0.379-38.363-1.683-42.265-5.906
			c-0.273,7.101-0.262,13.65-0.03,19.025c3.822,4.246,26.395,5.555,42.295,5.934h11.869c15.901-0.379,38.473-1.688,42.295-5.934
			c0.23-5.375,0.244-11.925-0.031-19.025C386.036,443.548,363.536,444.852,347.673,445.23z"/>
		<g>
			<path style="fill:#BFD176;" d="M310.601,371.377c-0.013,0.017-0.035,0.032-0.025,0.048
				C310.595,371.454,310.602,371.434,310.601,371.377z"/>
			<path style="fill:#BFD176;" d="M370.966,371.425c0.012-0.016-0.012-0.031-0.025-0.048
				C370.939,371.434,370.946,371.454,370.966,371.425z"/>
			<path style="fill:#BFD176;" d="M359.842,321.814c-6.249,5.249-16.958,17.257-19.07,19.9
				c-2.113-2.644-11.855-14.789-18.104-20.038c-8.705,4.285-16.307,10.779-18.103,14.096c0,0,5.991,34.04,6.036,35.605
				c0.613-0.72,25.913-0.892,30.171-0.916c4.257,0.025,29.558,0.196,30.169,0.916c0.046-1.565,7.212-34.915,7.212-34.915
				C376.356,333.146,368.548,326.098,359.842,321.814z"/>
		</g>
		<path style="fill:#E8C9AC;" d="M349.336,375.501c-6.634,0.829-20.867,0.554-22.11-3.454c-1.244-4.008,4.006-0.969,10.363-3.594
			c6.357-2.625,9.813-4.421,15.202-3.039C357.075,366.519,349.336,375.501,349.336,375.501z"/>
		<path style="fill:#F0DCCA;" d="M331.789,360.647c6.633-0.83,20.866-0.555,22.11,3.454c1.243,4.008-4.007,0.968-10.364,3.593
			c-6.357,2.626-9.812,4.422-15.201,3.04C324.05,369.628,331.789,360.647,331.789,360.647z"/>
		<path style="fill:#EFF5D5;" d="M313.477,357.19l20.937,2.28c0,0-1.658,20.936-2.487,29.021
			c-7.256,0.828-56.798-11.401-26.948-53.688C311.819,341.852,313.477,357.19,313.477,357.19z"/>
		<path style="fill:#243A69;" d="M311.607,382.626c3.224,1.747,6.55,3.064,9.585,4.005l5.032-28.052l-7.218-0.786L311.607,382.626z"
			/>
		<path style="fill:#6D7EFF;" d="M308.018,380.457c1.632,1.1,3.334,2.072,5.049,2.928l7.222-25.452l-4.986-0.543L308.018,380.457z"
			/>
		<path style="fill:#D66699;" d="M320.046,386.261c2.58,0.861,4.989,1.458,7.006,1.823l4.354-28.941l-5.221-0.568L320.046,386.261z"
			/>
		<path style="fill:#EFF5D5;" d="M368.617,357.19l-20.936,2.28c0,0,1.658,20.936,2.487,29.021
			c7.255,0.828,56.798-11.401,26.948-53.688C370.275,341.852,368.617,357.19,368.617,357.19z"/>
		<path style="fill:#243A69;" d="M370.487,382.626c-3.225,1.747-6.549,3.064-9.586,4.005l-5.031-28.052l7.218-0.786L370.487,382.626
			z"/>
		<path style="fill:#6D7EFF;" d="M374.077,380.457c-1.633,1.1-3.334,2.072-5.049,2.928l-7.222-25.452l4.985-0.543L374.077,380.457z"
			/>
		<path style="fill:#D66699;" d="M362.049,386.261c-2.58,0.861-4.989,1.458-7.006,1.823l-4.354-28.941l5.222-0.568L362.049,386.261z
			"/>
		<path style="fill:#EFF5D5;" d="M336.487,353.46l5.233,4.819l26.522-31.361c-1.496-1.08-3.094-2.137-4.76-3.123L336.487,353.46z"/>
		<polygon style="fill:#F283B5;" points="331.789,349.315 359.703,320.709 364.367,324.335 337.454,354.428 		"/>
		<path style="fill:#EFF5D5;" d="M312.478,327.963l19.5,21.506l5.597-5.13l-19.521-20.136
			C316.054,325.409,314.174,326.689,312.478,327.963z"/>
		<polygon style="fill:#F283B5;" points="317.52,324.335 338.145,346.966 343.259,341.576 323.635,320.57 		"/>
		<path style="fill:#F0DCCA;" d="M378.083,290.996c0,19.768-16.024,35.792-35.792,35.792h-3.04
			c-19.768,0-35.793-16.024-35.793-35.792l0,0c0-19.768,16.025-35.792,35.793-35.792h3.04
			C362.059,255.204,378.083,271.228,378.083,290.996L378.083,290.996z"/>
		<path style="fill:#F0DCCA;" d="M312.718,301.153c0,5.457-4.147,9.882-9.259,9.882c-5.114,0-9.26-4.425-9.26-9.882
			c0-5.458,4.146-9.881,9.26-9.881C308.571,291.272,312.718,295.695,312.718,301.153z"/>
		<path style="fill:#F0DCCA;" d="M368.825,301.153c0,5.457,4.145,9.882,9.258,9.882c5.114,0,9.26-4.425,9.26-9.882
			c0-5.458-4.146-9.881-9.26-9.881C372.97,291.272,368.825,295.695,368.825,301.153z"/>
		<g>
			<g>
				<g>
					<path style="fill:#310B42;" d="M341.563,247.815c0,0-43.271,0.296-41.282,31.81c0.475,7.513,5.227,17.513,6.495,17.866
						c7.624,2.123,32.959-25.065,35.069-31.096C342.407,253.218,341.563,247.815,341.563,247.815z"/>
				</g>
			</g>
			<g>
				<g>
					<path style="fill:#310B42;" d="M339.98,247.815c0,0,43.27,0.296,41.281,31.81c-0.474,7.513-5.227,17.513-6.495,17.866
						c-7.623,2.123-32.959-25.065-35.069-31.096C339.136,253.218,339.98,247.815,339.98,247.815z"/>
				</g>
			</g>
		</g>
		<path style="fill:#E37BAB;" d="M350.93,247.595c-1.099-1.904-3.186-2.878-5.241-2.652c-0.831-1.891-2.719-3.213-4.917-3.213
			c-2.198,0-4.086,1.322-4.918,3.212c-2.054-0.225-4.143,0.749-5.241,2.652c-1.099,1.905-0.898,4.199,0.323,5.866
			c-1.222,1.666-1.423,3.961-0.323,5.865c1.099,1.904,3.188,2.878,5.241,2.653c0.832,1.891,2.72,3.212,4.918,3.212
			c2.197,0,4.086-1.321,4.917-3.212c2.054,0.225,4.143-0.749,5.241-2.653s0.898-4.199-0.323-5.864
			C351.829,251.794,352.028,249.499,350.93,247.595z"/>
		<path style="fill:none;stroke:#FFABC9;stroke-width:2;stroke-linecap:round;stroke-miterlimit:10;" d="M347.076,253.46
			c0,3.482-2.822,6.306-6.305,6.306c-3.483,0-6.306-2.823-6.306-6.306c0-3.483,2.822-6.306,6.306-6.306
			C344.254,247.154,347.076,249.977,347.076,253.46z"/>
		<path style="fill:#FFABC9;" d="M344.211,253.46c0,1.899-1.54,3.439-3.439,3.439c-1.9,0-3.44-1.54-3.44-3.439
			c0-1.9,1.54-3.44,3.44-3.44C342.671,250.02,344.211,251.561,344.211,253.46z"/>
		<g>
			<path style="fill:#310B42;" d="M330.269,298.113c0,2.06-1.671,3.731-3.732,3.731c-2.061,0-3.731-1.671-3.731-3.731
				c0-2.061,1.67-3.732,3.731-3.732C328.598,294.382,330.269,296.053,330.269,298.113z"/>
		</g>
		<g>
			<path style="fill:#310B42;" d="M359.289,298.113c0,2.06-1.671,3.731-3.732,3.731c-2.06,0-3.731-1.671-3.731-3.731
				c0-2.061,1.671-3.732,3.731-3.732C357.618,294.382,359.289,296.053,359.289,298.113z"/>
		</g>
		<path style="opacity:0.5;fill:#E37BAB;" d="M364.367,308.201c0,2.366-2.808,4.285-6.27,4.285c-3.464,0-6.271-1.919-6.271-4.285
			c0-2.365,2.808-4.284,6.271-4.284C361.56,303.917,364.367,305.836,364.367,308.201z"/>
		<path style="opacity:0.5;fill:#E37BAB;" d="M317.175,308.201c0,2.366,2.808,4.285,6.27,4.285c3.465,0,6.271-1.919,6.271-4.285
			c0-2.365-2.807-4.284-6.271-4.284C319.982,303.917,317.175,305.836,317.175,308.201z"/>
		<path style="fill:none;stroke:#D4B59A;stroke-width:2;stroke-linecap:round;stroke-miterlimit:10;" d="M343.643,300.533
			c-0.478-1.668-1.584-2.837-2.871-2.837c-1.288,0-2.394,1.169-2.872,2.837"/>
		<path style="fill:none;stroke:#D4B59A;stroke-width:2;stroke-linecap:round;stroke-miterlimit:10;" d="M347.205,305.908
			c0,3.945-2.881,7.144-6.434,7.144c-3.554,0-6.435-3.198-6.435-7.144"/>
	</g>
	<g>
		<path style="fill:#243A69;" d="M177.388,372.709c-7.231,0-13.289,4.957-15.002,11.654c-1.714-6.697-7.771-11.654-15.003-11.654
			c-8.563,0-15.503,6.941-15.503,15.503v48.648c0,8.563,6.941,15.505,15.503,15.505c7.232,0,13.289-4.958,15.003-11.655
			c1.714,6.697,7.771,11.655,15.002,11.655c8.563,0,15.504-6.941,15.504-15.505v-48.648
			C192.892,379.65,185.95,372.709,177.388,372.709z"/>
		<rect x="131.153" y="361.786" style="fill:#F283B5;" width="62.463" height="33.822"/>
		<path style="fill:#F283B5;" d="M200.734,340.09c0,13.337-17.169,24.148-38.349,24.148s-38.349-10.812-38.349-24.148
			c0-13.338,17.169-24.149,38.349-24.149S200.734,326.752,200.734,340.09z"/>
		<rect x="147.932" y="368.8" style="fill:#243A69;" width="30.402" height="8.015"/>
		<path style="fill:#EFF5D5;" d="M176.688,330.865c0,7.899-6.404,14.303-14.303,14.303l0,0c-7.9,0-14.303-6.403-14.303-14.303
			v-7.877c0-7.9,6.403-14.304,14.303-14.304l0,0c7.898,0,14.303,6.403,14.303,14.304V330.865z"/>
		<polygon style="fill:#E8C9AC;" points="152.643,317.806 162.386,336.669 172.128,317.806 		"/>
		<g>
			<path style="fill:#F0DCCA;" d="M199.698,285.191c0,19.768-16.025,35.793-35.793,35.793h-3.041
				c-19.767,0-35.792-16.025-35.792-35.793l0,0c0-19.767,16.025-35.791,35.792-35.791h3.041
				C183.673,249.4,199.698,265.425,199.698,285.191L199.698,285.191z"/>
			<path style="fill:#F0DCCA;" d="M134.331,295.35c0,5.457-4.145,9.881-9.258,9.881c-5.114,0-9.26-4.424-9.26-9.881
				c0-5.458,4.146-9.881,9.26-9.881C130.186,285.469,134.331,289.892,134.331,295.35z"/>
			<path style="fill:#F0DCCA;" d="M190.439,295.35c0,5.457,4.145,9.881,9.258,9.881c5.114,0,9.259-4.424,9.259-9.881
				c0-5.458-4.145-9.881-9.259-9.881C194.584,285.469,190.439,289.892,190.439,295.35z"/>
			<path style="fill:#4C1166;" d="M123.856,278.701c-0.23,4.056,0,6.854,0,6.854s3.761,8.343,6.802,6.961
				c2.938-4.606,0.148-14.927,0.148-14.927L123.856,278.701z"/>
			<path style="fill:#4C1166;" d="M200.475,278.701c0.23,4.056,0,6.854,0,6.854s-3.761,8.343-6.801,6.961
				c-2.938-4.606-0.148-14.927-0.148-14.927L200.475,278.701z"/>
			<g>
				<path style="fill:#310B42;" d="M151.883,292.309c0,2.061-1.671,3.731-3.731,3.731c-2.061,0-3.732-1.67-3.732-3.731
					c0-2.061,1.671-3.73,3.732-3.73C150.212,288.578,151.883,290.248,151.883,292.309z"/>
			</g>
			<g>
				<path style="fill:#310B42;" d="M180.903,292.309c0,2.061-1.67,3.731-3.731,3.731c-2.061,0-3.731-1.67-3.731-3.731
					c0-2.061,1.67-3.73,3.731-3.73C179.233,288.578,180.903,290.248,180.903,292.309z"/>
			</g>
			<path style="fill:none;stroke:#D4B59A;stroke-width:2;stroke-linecap:round;stroke-miterlimit:10;" d="M165.257,294.729
				c-0.479-1.668-1.584-2.838-2.871-2.838c-1.288,0-2.393,1.17-2.872,2.838"/>
			<path style="fill:none;stroke:#D4B59A;stroke-width:2;stroke-linecap:round;stroke-miterlimit:10;" d="M168.82,300.104
				c0,3.944-2.881,7.143-6.434,7.143c-3.554,0-6.435-3.199-6.435-7.143"/>
		</g>
		<path style="fill:#E8C9AC;" d="M151.248,364.653c6.633,0.829,23.216,0.83,24.461-3.179c1.244-4.008-4.007-0.968-10.364-3.593
			c-6.357-2.626-9.813-4.421-15.202-3.04C145.859,355.947,151.248,364.653,151.248,364.653z"/>
		<path style="fill:#F0DCCA;" d="M171.145,350.074c-6.633-0.829-20.867-0.554-22.11,3.454c-1.244,4.009,4.007,0.969,10.364,3.594
			c6.357,2.625,9.813,4.421,15.202,3.04C178.885,359.057,171.145,350.074,171.145,350.074z"/>
		<path style="fill:#EFF5D5;" d="M151.939,384l1.796-33.857l-21.005-0.553l-1.175-23.907
			C104.125,342.127,106.128,383.586,151.939,384z"/>
		<path style="fill:#EEF5D0;" d="M172.669,384l-1.796-33.857l21.005-0.553l1.175-23.907C220.483,342.127,218.48,383.586,172.669,384
			z"/>
		<path style="fill:#310B42;" d="M181.513,248.986c-14.787-18.104-62.739-9.674-61.634,30.265
			c0.552,3.73,42.011,7.048,59.562-21.974c-1.382,23.77,22.25,26.533,23.354,24.46C206.11,262.943,199.201,246.084,181.513,248.986z
			"/>
		<path style="fill:#9E6060;" d="M156.362,455.584c0,3.206-2.598,5.805-5.804,5.805h-8.292c-3.206,0-5.804-2.599-5.804-5.805l0,0
			c0-3.206,2.598-5.804,5.804-5.804h8.292C153.764,449.78,156.362,452.378,156.362,455.584L156.362,455.584z"/>
		<path style="fill:#9E6060;" d="M189.321,455.584c0,3.206-2.599,5.805-5.804,5.805h-8.292c-3.206,0-5.804-2.599-5.804-5.805l0,0
			c0-3.206,2.599-5.804,5.804-5.804h8.292C186.723,449.78,189.321,452.378,189.321,455.584L189.321,455.584z"/>
	</g>
	<g>
		<defs>
			<rect id="SVGID_00000021083173858314810240000013287967180713469346_" width="500" height="500"/>
		</defs>
		<clipPath id="SVGID_00000123415072672313801730000017519315833546348474_">
			<use xlink:href="#SVGID_00000021083173858314810240000013287967180713469346_"  style="overflow:visible;"/>
		</clipPath>
		<g style="clip-path:url(#SVGID_00000123415072672313801730000017519315833546348474_);">
			<g>
				<path style="fill:none;stroke:#C7A485;stroke-width:6;stroke-linecap:round;stroke-miterlimit:10;" d="M347.681,119.76
					c0,0,131.094,71.357,182.216,112.095"/>
				<path style="fill:none;stroke:#C7A485;stroke-width:6;stroke-linecap:round;stroke-miterlimit:10;" d="M402.471,115.428
					c10.235,15.386,30.992,51.65,36.317,56.442"/>
				<path style="fill:none;stroke:#C7A485;stroke-width:6;stroke-linecap:round;stroke-miterlimit:10;" d="M391.176,191.117
					c33.282,0,81.268,1.346,81.268,1.346"/>
				<path style="fill:#E37BAB;" d="M426.844,190.148c-0.717-1.24-2.078-1.876-3.417-1.729c-0.54-1.231-1.771-2.094-3.203-2.094
					c-1.434,0-2.662,0.862-3.205,2.094c-1.339-0.147-2.699,0.488-3.416,1.729c-0.716,1.241-0.586,2.735,0.211,3.821
					c-0.797,1.086-0.927,2.581-0.211,3.823c0.717,1.24,2.077,1.875,3.416,1.728c0.543,1.232,1.771,2.093,3.205,2.093
					c1.432,0,2.663-0.861,3.203-2.093c1.339,0.147,2.7-0.488,3.417-1.728c0.716-1.242,0.585-2.737-0.211-3.822
					C427.43,192.883,427.56,191.389,426.844,190.148z"/>
				<path style="fill:#E37BAB;" d="M442.629,160.299c-1.17-2.028-3.393-3.065-5.582-2.825c-0.885-2.014-2.895-3.422-5.236-3.422
					c-2.342,0-4.351,1.408-5.238,3.421c-2.188-0.239-4.412,0.798-5.582,2.825c-1.17,2.029-0.957,4.472,0.345,6.247
					c-1.302,1.774-1.516,4.219-0.345,6.247c1.17,2.028,3.395,3.064,5.582,2.826c0.887,2.014,2.896,3.42,5.238,3.42
					c2.34,0,4.352-1.406,5.236-3.42c2.188,0.238,4.412-0.798,5.582-2.826c1.17-2.028,0.957-4.473-0.344-6.246
					C443.587,164.77,443.799,162.327,442.629,160.299z"/>
				<path style="fill:#E37BAB;" d="M476.498,184.87c-1.17-2.028-3.393-3.064-5.582-2.824c-0.885-2.014-2.896-3.422-5.236-3.422
					c-2.342,0-4.353,1.408-5.238,3.42c-2.188-0.238-4.412,0.798-5.582,2.825c-1.17,2.029-0.957,4.473,0.344,6.248
					c-1.301,1.774-1.515,4.219-0.344,6.246c1.17,2.028,3.395,3.065,5.582,2.826c0.886,2.014,2.897,3.421,5.238,3.421
					c2.34,0,4.352-1.407,5.236-3.421c2.188,0.239,4.412-0.798,5.582-2.826c1.17-2.027,0.957-4.472-0.344-6.245
					C477.456,189.343,477.668,186.898,476.498,184.87z"/>
				
					<line style="fill:none;stroke:#C7A485;stroke-width:6;stroke-linecap:round;stroke-miterlimit:10;" x1="349.995" y1="140.794" x2="383.188" y2="139.558"/>
				<path style="fill:#E37BAB;" d="M390.706,129.328c-0.716-1.241-2.078-1.876-3.416-1.728c-0.541-1.231-1.771-2.094-3.204-2.094
					c-1.433,0-2.662,0.862-3.205,2.094c-1.339-0.147-2.699,0.487-3.416,1.728c-0.715,1.241-0.585,2.735,0.211,3.821
					c-0.796,1.086-0.926,2.581-0.211,3.823c0.717,1.24,2.077,1.875,3.416,1.729c0.543,1.231,1.772,2.093,3.205,2.093
					c1.432,0,2.663-0.861,3.204-2.093c1.338,0.146,2.7-0.488,3.416-1.729c0.716-1.242,0.585-2.737-0.211-3.822
					C391.292,132.064,391.422,130.569,390.706,129.328z"/>
			</g>
			<g>
				<path style="fill:none;stroke:#C7A485;stroke-width:6;stroke-linecap:round;stroke-miterlimit:10;" d="M152.951,88.44
					c0,0-131.094,71.357-182.216,112.095"/>
				<path style="fill:none;stroke:#C7A485;stroke-width:6;stroke-linecap:round;stroke-miterlimit:10;" d="M134.881,132.907
					c-18.854,2.091-59.367,6.788-73.038,7.644"/>
				<path style="fill:none;stroke:#C7A485;stroke-width:6;stroke-linecap:round;stroke-miterlimit:10;" d="M41.254,92.803
					c-5.616,21.057-13.066,68.341-13.066,68.341"/>
				<path style="fill:#E37BAB;" d="M103.944,140.552c-0.796,1.085-0.927,2.58-0.211,3.822c0.717,1.24,2.078,1.875,3.417,1.729
					c0.54,1.232,1.771,2.093,3.203,2.093c1.434,0,2.662-0.861,3.205-2.093c1.339,0.146,2.699-0.488,3.416-1.729
					c0.716-1.242,0.586-2.737-0.211-3.823c0.797-1.086,0.927-2.58,0.211-3.821c-0.717-1.24-2.077-1.876-3.416-1.729
					c-0.543-1.232-1.771-2.094-3.205-2.094c-1.433,0-2.663,0.862-3.203,2.094c-1.339-0.148-2.7,0.488-3.417,1.729
					C103.017,137.971,103.147,139.465,103.944,140.552z"/>
				<path style="fill:#E37BAB;" d="M67.013,137.317c-1.301,1.773-1.514,4.218-0.344,6.246c1.17,2.028,3.395,3.064,5.582,2.826
					c0.885,2.014,2.896,3.42,5.236,3.42c2.342,0,4.352-1.406,5.238-3.42c2.188,0.238,4.412-0.798,5.582-2.826
					c1.171-2.028,0.957-4.473-0.345-6.247c1.302-1.775,1.515-4.218,0.345-6.247c-1.17-2.027-3.395-3.064-5.582-2.825
					c-0.887-2.013-2.896-3.421-5.238-3.421c-2.341,0-4.352,1.408-5.236,3.422c-2.188-0.24-4.412,0.797-5.582,2.825
					C65.499,133.099,65.711,135.542,67.013,137.317z"/>
				<path style="fill:#E37BAB;" d="M13.576,161.145c-1.301,1.773-1.514,4.218-0.344,6.245c1.17,2.028,3.395,3.065,5.582,2.826
					c0.885,2.014,2.896,3.421,5.236,3.421c2.342,0,4.352-1.407,5.238-3.421c2.188,0.239,4.412-0.798,5.582-2.826
					c1.171-2.027,0.957-4.472-0.344-6.246c1.301-1.775,1.514-4.219,0.344-6.248c-1.17-2.027-3.395-3.063-5.582-2.825
					c-0.886-2.012-2.897-3.42-5.238-3.42c-2.341,0-4.352,1.408-5.236,3.422c-2.189-0.24-4.412,0.796-5.582,2.824
					S12.274,159.369,13.576,161.145z"/>
				
					<line style="fill:none;stroke:#C7A485;stroke-width:6;stroke-linecap:round;stroke-miterlimit:10;" x1="134.881" y1="81.053" x2="117.443" y2="108.238"/>
				<path style="fill:#E37BAB;" d="M124.347,100.447c-0.796,1.085-0.927,2.58-0.211,3.822c0.716,1.24,2.078,1.875,3.416,1.729
					c0.541,1.231,1.772,2.093,3.204,2.093c1.433,0,2.662-0.861,3.205-2.093c1.339,0.146,2.699-0.488,3.416-1.729
					c0.715-1.242,0.585-2.737-0.211-3.823c0.796-1.086,0.926-2.58,0.211-3.821c-0.717-1.241-2.077-1.876-3.416-1.729
					c-0.543-1.231-1.772-2.094-3.205-2.094c-1.433,0-2.663,0.862-3.204,2.094c-1.338-0.147-2.7,0.487-3.416,1.729
					C123.42,97.866,123.55,99.36,124.347,100.447z"/>
				
					<line style="fill:none;stroke:#C7A485;stroke-width:6;stroke-linecap:round;stroke-miterlimit:10;" x1="103.264" y1="85.386" x2="92.049" y2="122.732"/>
				<path style="fill:#E37BAB;" d="M89.619,98.448c-0.466,0.635-0.542,1.511-0.123,2.239c0.419,0.727,1.217,1.098,2.001,1.012
					c0.316,0.722,1.038,1.227,1.877,1.227c0.839,0,1.559-0.505,1.878-1.227c0.784,0.086,1.581-0.285,2-1.012
					c0.419-0.729,0.343-1.604-0.123-2.24c0.466-0.636,0.542-1.512,0.123-2.238c-0.42-0.728-1.217-1.1-2-1.014
					c-0.319-0.721-1.039-1.226-1.878-1.226c-0.84,0-1.56,0.506-1.877,1.226c-0.784-0.086-1.582,0.286-2.001,1.014
					C89.077,96.936,89.153,97.812,89.619,98.448z"/>
			</g>
			<g>
				
					<line style="fill:none;stroke:#C7A485;stroke-width:6;stroke-linecap:round;stroke-miterlimit:10;" x1="-13.552" y1="282.117" x2="73.371" y2="212.977"/>
				
					<line style="fill:none;stroke:#C7A485;stroke-width:6;stroke-linecap:round;stroke-miterlimit:10;" x1="24.526" y1="251.829" x2="82.21" y2="232.63"/>
				
					<line style="fill:none;stroke:#C7A485;stroke-width:6;stroke-linecap:round;stroke-miterlimit:10;" x1="58.219" y1="225.029" x2="64.947" y2="203.109"/>
				<path style="fill:#E37BAB;" d="M71.737,211.104c-0.483,1.332-0.174,2.881,0.916,3.924c1.089,1.043,2.651,1.281,3.961,0.739
					c0.91,1.085,2.408,1.591,3.854,1.169c1.447-0.423,2.436-1.655,2.621-3.059c1.395-0.248,2.583-1.29,2.94-2.755
					c0.358-1.465-0.216-2.938-1.341-3.8c0.484-1.332,0.175-2.881-0.915-3.924c-1.089-1.042-2.651-1.281-3.96-0.739
					c-0.912-1.084-2.408-1.591-3.855-1.168c-1.447,0.423-2.436,1.655-2.619,3.061c-1.396,0.247-2.583,1.288-2.94,2.754
					C70.04,208.77,70.613,210.242,71.737,211.104z"/>
				<path style="fill:#E37BAB;" d="M54.363,210.077c-0.278,0.764-0.1,1.653,0.525,2.252s1.522,0.736,2.274,0.425
					c0.522,0.623,1.382,0.914,2.213,0.671c0.831-0.242,1.399-0.949,1.505-1.757c0.801-0.143,1.483-0.74,1.688-1.581
					c0.205-0.842-0.124-1.688-0.77-2.182c0.278-0.766,0.101-1.655-0.525-2.254c-0.625-0.599-1.522-0.735-2.274-0.424
					c-0.523-0.623-1.382-0.914-2.214-0.671c-0.831,0.242-1.398,0.95-1.503,1.758c-0.802,0.141-1.483,0.739-1.688,1.581
					C53.388,208.736,53.716,209.582,54.363,210.077z"/>
				<path style="fill:#E37BAB;" d="M21.75,253.816c-0.551,1.518-0.198,3.284,1.044,4.473c1.242,1.189,3.023,1.462,4.516,0.844
					c1.038,1.236,2.746,1.814,4.395,1.333c1.65-0.482,2.777-1.888,2.988-3.489c1.591-0.283,2.945-1.471,3.353-3.142
					c0.407-1.67-0.246-3.35-1.529-4.332c0.552-1.52,0.199-3.285-1.043-4.475c-1.242-1.189-3.023-1.461-4.517-0.843
					c-1.039-1.236-2.745-1.814-4.396-1.332c-1.65,0.482-2.778,1.888-2.987,3.489c-1.592,0.281-2.947,1.47-3.353,3.141
					C19.815,251.154,20.469,252.833,21.75,253.816z"/>
			</g>
		</g>
	</g>
</g>
</svg>
